<!DOCTYPE svg PUBLIC "-//W3C//DTD SVG 1.1//EN" "http://www.w3.org/Graphics/SVG/1.1/DTD/svg11.dtd">
<!-- Uploaded to: SVG Repo, www.svgrepo.com, Transformed by: SVG Repo Mixer Tools -->
<svg height="800px" width="800px" version="1.1" id="Layer_1" xmlns="http://www.w3.org/2000/svg" xmlns:xlink="http://www.w3.org/1999/xlink" viewBox="0 0 512 512" xml:space="preserve" fill="#000000">
<g id="SVGRepo_bgCarrier" stroke-width="0"/>
<g id="SVGRepo_tracerCarrier" stroke-linecap="round" stroke-linejoin="round"/>
<g id="SVGRepo_iconCarrier"> <path style="fill:#66c4ff;" d="M440.937,256c0,102.137-82.799,184.937-184.937,184.937S71.063,358.137,71.063,256 S153.863,71.063,256,71.063S440.937,153.863,440.937,256z M55.652,467.478H22.261C9.966,467.478,0,477.444,0,489.739l0,0 C0,502.034,9.966,512,22.261,512h33.391c12.295,0,22.261-9.966,22.261-22.261l0,0C77.913,477.444,67.947,467.478,55.652,467.478z"/> <path style="fill:#0095b6;" d="M385.284,256c0,71.402-57.883,129.284-129.284,129.284S126.716,327.402,126.716,256 S184.598,126.716,256,126.716S385.284,184.598,385.284,256z"/> <path style="fill:#ffb703;" d="M470.361,231.303c1.501,13.173-8.874,24.697-22.133,24.697H278.261 C265.966,256,256,246.034,256,233.739V63.772c0-13.259,11.524-23.634,24.698-22.133C380.122,52.969,459.03,131.878,470.361,231.303z M489.739,0h-33.391c-12.295,0-22.261,9.966-22.261,22.261l0,0c0,12.295,9.966,22.261,22.261,22.261h33.391 c12.295,0,22.261-9.966,22.261-22.261l0,0C512,9.966,502.034,0,489.739,0z"/> <path style="fill:#b5941c;" d="M385.284,256H278.261C265.966,256,256,246.034,256,233.739V126.716 C327.402,126.716,385.284,184.598,385.284,256z"/> <path style="fill:#777777;" d="M195.121,316.879c3.26,3.261,3.26,8.546,0,11.806L83.817,439.989 c-1.631,1.629-3.768,2.444-5.904,2.444c-2.136,0-4.273-0.815-5.904-2.444c-3.26-3.261-3.26-8.546,0-11.806l111.304-111.304 C186.575,313.621,191.86,313.621,195.121,316.879z M439.991,72.009c-3.261-3.259-8.546-3.259-11.806,0L316.88,183.314 c-3.26,3.261-3.26,8.546,0,11.806c1.631,1.63,3.768,2.444,5.904,2.444c2.136,0,4.273-0.815,5.904-2.444L439.992,83.816 C443.25,80.555,443.25,75.271,439.991,72.009z"/> </g>
</svg>