<!DOCTYPE svg PUBLIC "-//W3C//DTD SVG 1.1//EN" "http://www.w3.org/Graphics/SVG/1.1/DTD/svg11.dtd">
<!-- Uploaded to: SVG Repo, www.svgrepo.com, Transformed by: SVG Repo Mixer Tools -->
<svg width="800px" height="800px" viewBox="-4.8 -4.8 57.60 57.60" version="1" xmlns="http://www.w3.org/2000/svg" enable-background="new 0 0 48 48" fill="#000000">
<g id="SVGRepo_bgCarrier" stroke-width="0">
<path transform="translate(-4.8, -4.8), scale(1.7999999999999998)" d="M16,29.910136248916388C17.9644321909189,29.19248554730479,19.1246109645204,27.240465195556297,20.830330350584198,26.030284325500837C22.247227749929994,25.025018077412664,24.176882316260073,24.742403098537437,25.230609279291308,23.361165263405805C26.280867008919248,21.984474940678854,26.15791656848961,20.092133555804818,26.63115670999268,18.426492144274885C27.12894816080311,16.674438626283024,28.046440753304573,15.05699798495092,28.10718526597762,13.236613969808039C28.176004980262793,11.174233315184436,28.377636331459986,8.764588816400618,27.004979344878056,7.223821827259242C25.618789247618786,5.667864320460601,23.11276479949687,5.9675020609880605,21.112030581783987,5.384759116993424C19.39707942513685,4.885254646592559,17.782668447030172,4.130957706109905,16,4.0184615124017C14.154656575449156,3.902010182547136,12.242341661332567,3.9358686666847498,10.56752168948353,4.719342551797412C8.887130924934631,5.505422430791854,7.649577368131952,6.968694917431936,6.530443781488289,8.448280911211022C5.4278978020522715,9.905936733661457,4.6810064356836545,11.552034405355423,4.090990103035109,13.28184620457005C3.457300538501038,15.139699326787197,2.5832681151155374,17.050694185193496,2.9377421873678244,18.981375106535047C3.2943749896690386,20.92381378181699,5.102943730226429,22.202529490023963,6.047286586536693,23.93702409440994C7.188839804586007,26.033739163619348,7.06023854614342,29.08449807291002,9.107224845365113,30.312995090361525C11.10567853534984,31.512365305293923,13.810782274000085,30.709906098090705,16,29.910136248916388" fill="#006b8f" strokewidth="0"/>
</g>
<g id="SVGRepo_tracerCarrier" stroke-linecap="round" stroke-linejoin="round"/>
<g id="SVGRepo_iconCarrier"> <path fill="#cceef5" d="M25,22h13l6,6V11c0-2.2-1.8-4-4-4H25c-2.2,0-4,1.8-4,4v7C21,20.2,22.8,22,25,22z"/> <path fill="#0095b6" d="M23,19H10l-6,6V8c0-2.2,1.8-4,4-4h15c2.2,0,4,1.8,4,4v7C27,17.2,25.2,19,23,19z"/> <g fill="#ffb703"> <circle cx="12" cy="31" r="5"/> <circle cx="36" cy="31" r="5"/> </g> <g fill="#0095b6"> <path d="M20,42c0,0-2.2-4-8-4s-8,4-8,4v2h16V42z"/> <path d="M44,42c0,0-2.2-4-8-4s-8,4-8,4v2h16V42z"/> </g> </g>
</svg>