<!DOCTYPE svg PUBLIC "-//W3C//DTD SVG 1.1//EN" "http://www.w3.org/Graphics/SVG/1.1/DTD/svg11.dtd">
<!-- Uploaded to: SVG Repo, www.svgrepo.com, Transformed by: SVG Repo Mixer Tools -->
<svg version="1.1" id="Uploaded to svgrepo.com" xmlns="http://www.w3.org/2000/svg" xmlns:xlink="http://www.w3.org/1999/xlink" width="800px" height="800px" viewBox="-3.2 -3.2 38.40 38.40" xml:space="preserve" fill="#000000" stroke="#000000" stroke-width="0.00032" transform="matrix(1, 0, 0, 1, 0, 0)rotate(0)">
<g id="SVGRepo_bgCarrier" stroke-width="0">
<path transform="translate(-3.2, -3.2), scale(1.2)" d="M16,28.07965557898084C18.48817736624358,28.13575076081603,20.56032049973723,26.493239225815454,22.699076241434966,25.22048742256907C25.082792725564435,23.801961971319724,28.021097799050672,22.808772533617113,29.12992437334378,20.266171038947896C30.270304388634123,17.65121573521465,29.46076137385515,14.624300699659344,28.48990936409465,11.941782443441834C27.545214104630297,9.331536747292514,25.81766635865544,7.189336968571236,23.733548540486634,5.355683607787967C21.450615056219288,3.3471077876601147,19.0403573985027,0.9040040078230449,16.000000000000004,0.9528814889490604C12.969360186300914,1.0016027479585365,10.815410994185582,3.712442038108768,8.44502242155193,5.601465451458985C6.1965436438070824,7.393335824366632,3.7090123668601276,8.99465840789497,2.5871719381043086,11.641907980504648C1.403631827115257,14.434752642429501,0.7252136307473023,17.817941123823875,2.128342903982391,20.507174609885077C3.4888817726636603,23.11477945039251,6.935255386737012,23.514019207545495,9.516844424184661,24.923298122154108C11.679450122200553,26.103855742525568,13.53677126177741,28.024122856174642,16,28.07965557898084" fill="#ffb703" strokewidth="0"/>
</g>
<g id="SVGRepo_tracerCarrier" stroke-linecap="round" stroke-linejoin="round"/>
<g id="SVGRepo_iconCarrier"> <style type="text/css"> .isometric_een{fill:#dedede;} .isometric_vier{fill:#bfbfbf;} .isometric_acht{fill:#00708a;} .isometric_negen{fill:#00708a;} .st0{fill:#225B49;} .st1{fill:#569080;} .st2{fill:#F28103;} .st3{fill:#7BD6C4;} .st4{fill:#72C0AB;} .st5{fill:#F29227;} .st6{fill:#FF7344;} .st7{fill:#F5DF89;} .st8{fill:none;} .st9{fill:#00708a;} .st10{fill:#F2D76C;} </style> <g> <polygon class="isometric_vier" points="8,12.99 8,28.438 12,30.444 24,23.329 24,7.882 12,14.997 "/> <polygon class="isometric_een" points="12,30.444 24,23.329 24,7.882 12,14.997 "/> <polygon class="isometric_negen" points="24,3.562 20.391,1.556 8,8.696 8,12.99 12,14.997 12,10.677 "/> <path class="isometric_acht" d="M24,3.562v4.32l-12,7.115v-4.32L24,3.562z M18.454,13.504c-1.548,0.894-2.639,2.881-2.639,4.821 c0,1.967,1.205,2.38,2.556,1.6c0.551-0.318,1.111-0.918,1.63-1.717c-0.082,1.405-0.519,2.863-1.713,3.553 c-0.458,0.264-0.925,0.297-1.174,0.192c-0.706-0.41-1.526,1.45-0.914,1.858c0.519,0.338,1.37,0.068,2.088-0.346 c1.713-0.989,2.659-2.782,2.95-5.001C21.497,15.474,21.384,11.812,18.454,13.504z M18.454,18.146 c-0.884,0.51-1.268,0.011-1.268-0.612c0-0.846,0.479-1.8,1.268-2.256c0.935-0.54,1.392,0,1.392,0.721S19.389,17.605,18.454,18.146z "/> </g> </g>
</svg>